<?xml version="1.0" encoding="utf-8"?>
<!-- Generator: Adobe Illustrator 19.2.1, SVG Export Plug-In . SVG Version: 6.00 Build 0)  -->
<svg version="1.1" id="Layer_1" xmlns="http://www.w3.org/2000/svg" xmlns:xlink="http://www.w3.org/1999/xlink" x="0px" y="0px"
	 viewBox="-283 285 32 32" style="enable-background:new -283 285 32 32;" xml:space="preserve">
<style type="text/css">
	.st0{fill:#383838;}
</style>
<g id="Flat_copy">
	<g>
		<path class="st0" d="M-264.8,292.2c0,0-4,0-5.4,0c-2.5,0-4.8,1.7-4.8,3.9c0,2.2,1.7,4,4.2,4c0.2,0,0.3,0,0.5-0.1
			c-0.2,0.3-0.3,0.6-0.3,1c0,0.6,0.3,1.1,0.8,1.5c-0.3,0-0.6,0-1,0c-3.1,0-5.5,2-5.5,4c0,2,2.6,3.3,5.7,3.3c3.5,0,5.5-2,5.5-4
			c0-1.6-0.5-2.6-1.9-3.6c-0.5-0.4-1.5-1.2-1.5-1.7c0-0.6,0.2-0.9,1.1-1.6c0.9-0.7,1.6-1.6,1.6-2.7c0-1.4-0.6-3.1-1.8-3.1h2
			L-264.8,292.2z M-266.6,305.5c0,0.2,0.1,0.4,0.1,0.6c0,1.6-1,2.9-4,2.9c-2.1,0-3.7-1.3-3.7-3c0-1.6,1.9-2.9,4-2.9
			c0.5,0,1,0.1,1.4,0.2C-267.7,304.1-266.9,304.6-266.6,305.5z M-270,299.4c-1.4,0-2.8-1.6-3-3.5c-0.2-1.9,0.7-3.3,2.1-3.3
			c1.4,0,2.8,1.5,3,3.4C-267.6,298-268.6,299.5-270,299.4z"/>
		<polygon class="st0" points="-260.4,299.2 -260.4,296.6 -262.1,296.6 -262.1,299.2 -264.8,299.2 -264.8,301 -262.1,301 
			-262.1,303.6 -260.4,303.6 -260.4,301 -257.7,301 -257.7,299.2 		"/>
	</g>
</g>
</svg>
