<?xml version="1.0" encoding="utf-8"?>
<!-- Generator: Adobe Illustrator 19.2.1, SVG Export Plug-In . SVG Version: 6.00 Build 0)  -->
<svg version="1.1" id="Layer_1" xmlns="http://www.w3.org/2000/svg" xmlns:xlink="http://www.w3.org/1999/xlink" x="0px" y="0px"
	 viewBox="-283 285 32 32" style="enable-background:new -283 285 32 32;" xml:space="preserve">
<style type="text/css">
	.st0{fill:#eff0f0;}
</style>
<g id="Flat_copy">
	<path class="st0" d="M-258.7,307.9v-6.1c0-3.3-1.8-4.8-4.1-4.8c-1.9,0-2.7,1-3.2,1.8v-1.5h-3.6c0,1,0,10.7,0,10.7h3.6v-6
		c0-0.3,0-0.6,0.1-0.9c0.3-0.6,0.8-1.3,1.8-1.3c1.3,0,1.8,1,1.8,2.4v5.7L-258.7,307.9L-258.7,307.9z M-273.3,295.8
		c1.2,0,2-0.8,2-1.9c0-1-0.8-1.8-2-1.8c-1.2,0-2,0.8-2,1.8C-275.3,295-274.5,295.8-273.3,295.8L-273.3,295.8z M-271.5,307.9v-10.7
		h-3.6v10.7L-271.5,307.9z"/>
</g>
</svg>
