<?xml version="1.0" encoding="utf-8"?>
<!-- Generator: Adobe Illustrator 19.2.1, SVG Export Plug-In . SVG Version: 6.00 Build 0)  -->
<svg version="1.1" id="Layer_1" xmlns="http://www.w3.org/2000/svg" xmlns:xlink="http://www.w3.org/1999/xlink" x="0px" y="0px"
	 viewBox="-283 285 32 32" style="enable-background:new -283 285 32 32;" xml:space="preserve">
<style type="text/css">
	.st0{fill:#eff0f0;}
</style>
<g>
	<g>
		<path class="st0" d="M-265,304.6c-0.1,0-0.1,0-0.2,0c-0.1,0-0.1,0.1-0.2,0.1v2.9c0.1,0.1,0.1,0.1,0.2,0.2c0.1,0,0.1,0,0.2,0
			c0.1,0,0.2,0,0.2-0.1c0.1-0.1,0.1-0.2,0.1-0.3V305c0-0.2,0-0.3-0.1-0.4C-264.8,304.6-264.9,304.6-265,304.6z"/>
		<path class="st0" d="M-261.9,304.6c-0.1,0-0.2,0-0.3,0.1c-0.1,0.1-0.1,0.2-0.1,0.4v0.5h0.8v-0.5c0-0.2,0-0.3-0.1-0.4
			C-261.6,304.6-261.7,304.6-261.9,304.6z"/>
		<path class="st0" d="M-259.9,301c-0.8-0.8-7.1-0.8-7.1-0.8c0,0-6.3,0-7.1,0.8c-0.8,0.8-0.8,4.5-0.8,4.5c0,0,0,3.7,0.8,4.5
			c0.8,0.8,7.1,0.8,7.1,0.8s6.3,0,7.1-0.8c0.8-0.8,0.8-4.5,0.8-4.5C-259.2,305.4-259.2,301.7-259.9,301z M-270,303.1h-1.1v5.4h-1
			v-5.4h-1.1v-0.9h3.2V303.1z M-267,308.5h-0.9V308c-0.2,0.2-0.3,0.3-0.5,0.4c-0.2,0.1-0.4,0.1-0.5,0.1c-0.2,0-0.4-0.1-0.5-0.2
			c-0.1-0.1-0.2-0.3-0.2-0.6v-3.9h0.9v3.6c0,0.1,0,0.2,0.1,0.2c0,0,0.1,0.1,0.2,0.1c0.1,0,0.2,0,0.3-0.1c0.1-0.1,0.2-0.1,0.3-0.2
			v-3.5h0.9V308.5z M-263.7,307.6c0,0.3-0.1,0.6-0.2,0.8c-0.1,0.2-0.4,0.3-0.6,0.3c-0.2,0-0.3,0-0.5-0.1c-0.1-0.1-0.3-0.2-0.4-0.3
			v0.4h-0.9v-6.3h0.9v2c0.1-0.1,0.3-0.2,0.4-0.3c0.1-0.1,0.3-0.1,0.4-0.1c0.3,0,0.5,0.1,0.7,0.3c0.2,0.2,0.2,0.5,0.2,0.9V307.6z
			 M-260.5,306.3h-1.8v0.9c0,0.2,0,0.4,0.1,0.5c0.1,0.1,0.2,0.1,0.3,0.1c0.2,0,0.3,0,0.3-0.1c0.1-0.1,0.1-0.3,0.1-0.5V307h0.9v0.2
			c0,0.5-0.1,0.8-0.3,1.1c-0.2,0.2-0.6,0.4-1,0.4c-0.4,0-0.7-0.1-1-0.4c-0.2-0.3-0.4-0.6-0.4-1.1v-2.1c0-0.4,0.1-0.7,0.4-1
			c0.3-0.3,0.6-0.4,1-0.4c0.4,0,0.7,0.1,1,0.4c0.2,0.2,0.3,0.6,0.3,1V306.3z"/>
	</g>
	<path class="st0" d="M-261.9,298.3h-1v-0.6c-0.2,0.2-0.4,0.4-0.6,0.5c-0.2,0.1-0.4,0.2-0.6,0.2c-0.2,0-0.4-0.1-0.5-0.2
		c-0.1-0.2-0.2-0.4-0.2-0.7v-4.3h1v3.9c0,0.1,0,0.2,0.1,0.3c0,0.1,0.1,0.1,0.2,0.1c0.1,0,0.2,0,0.3-0.1c0.1-0.1,0.2-0.2,0.3-0.3
		v-3.9h1V298.3L-261.9,298.3z"/>
	<path class="st0" d="M-266,293.4c-0.3-0.2-0.6-0.4-1-0.4c-0.5,0-0.8,0.1-1.1,0.4c-0.3,0.2-0.4,0.6-0.4,0.9v2.7c0,0.4,0.1,0.8,0.4,1
		c0.3,0.3,0.6,0.4,1.1,0.4c0.5,0,0.8-0.1,1.1-0.4c0.3-0.2,0.4-0.6,0.4-1v-2.6C-265.6,293.9-265.8,293.6-266,293.4z M-266.7,297.1
		c0,0.1,0,0.2-0.1,0.3c-0.1,0.1-0.2,0.1-0.3,0.1c-0.1,0-0.2,0-0.3-0.1c-0.1-0.1-0.1-0.2-0.1-0.3v-2.8c0-0.1,0-0.2,0.1-0.3
		c0.1-0.1,0.2-0.1,0.3-0.1c0.1,0,0.2,0,0.3,0.1c0.1,0.1,0.1,0.2,0.1,0.3V297.1z"/>
	<polygon class="st0" points="-271.4,291.3 -272.6,291.3 -271.2,295.5 -271.2,298.3 -270,298.3 -270,295.4 -268.7,291.3
		-269.9,291.3 -270.6,294.1 -270.7,294.1 	"/>
</g>
</svg>
